<mxfile host="app.diagrams.net" modified="2023-08-30T08:59:32.239Z" agent="Mozilla/5.0 (Windows NT 10.0; Win64; x64) AppleWebKit/537.36 (KHTML, like Gecko) Chrome/116.0.0.0 Safari/537.36" etag="yjHyHDK2vBeZs3pxw2nb" version="21.6.9" type="device">
  <diagram name="Page-1" id="9361dd3d-8414-5efd-6122-117bd74ce7a7">
    <mxGraphModel dx="2638" dy="976" grid="1" gridSize="10" guides="1" tooltips="1" connect="1" arrows="1" fold="1" page="0" pageScale="1.5" pageWidth="826" pageHeight="1169" background="none" math="0" shadow="0">
      <root>
        <mxCell id="0" />
        <mxCell id="1" parent="0" />
        <mxCell id="XxEhJsYFe1JAZc-J_-iV-1" value="Developer" style="shape=umlActor;verticalLabelPosition=bottom;verticalAlign=top;html=1;" parent="1" vertex="1">
          <mxGeometry x="-610" y="110" width="30" height="60" as="geometry" />
        </mxCell>
        <mxCell id="XxEhJsYFe1JAZc-J_-iV-2" value=":SpringApplication" style="shape=umlLifeline;perimeter=lifelinePerimeter;whiteSpace=wrap;html=1;container=1;dropTarget=0;collapsible=0;recursiveResize=0;outlineConnect=0;portConstraint=eastwest;newEdgeStyle={&quot;edgeStyle&quot;:&quot;elbowEdgeStyle&quot;,&quot;elbow&quot;:&quot;vertical&quot;,&quot;curved&quot;:0,&quot;rounded&quot;:0};" parent="1" vertex="1">
          <mxGeometry x="-470" y="30" width="100" height="1260" as="geometry" />
        </mxCell>
        <mxCell id="XxEhJsYFe1JAZc-J_-iV-3" value="" style="html=1;points=[];perimeter=orthogonalPerimeter;outlineConnect=0;targetShapes=umlLifeline;portConstraint=eastwest;newEdgeStyle={&quot;edgeStyle&quot;:&quot;elbowEdgeStyle&quot;,&quot;elbow&quot;:&quot;vertical&quot;,&quot;curved&quot;:0,&quot;rounded&quot;:0};" parent="XxEhJsYFe1JAZc-J_-iV-2" vertex="1">
          <mxGeometry x="45" y="100" width="10" height="1140" as="geometry" />
        </mxCell>
        <mxCell id="XxEhJsYFe1JAZc-J_-iV-8" value="" style="html=1;points=[];perimeter=orthogonalPerimeter;outlineConnect=0;targetShapes=umlLifeline;portConstraint=eastwest;newEdgeStyle={&quot;edgeStyle&quot;:&quot;elbowEdgeStyle&quot;,&quot;elbow&quot;:&quot;vertical&quot;,&quot;curved&quot;:0,&quot;rounded&quot;:0};" parent="XxEhJsYFe1JAZc-J_-iV-2" vertex="1">
          <mxGeometry x="55" y="120" width="10" height="970" as="geometry" />
        </mxCell>
        <mxCell id="XxEhJsYFe1JAZc-J_-iV-9" value="new" style="html=1;align=left;spacingLeft=2;endArrow=block;rounded=0;edgeStyle=orthogonalEdgeStyle;curved=0;rounded=0;exitX=0.5;exitY=0;exitDx=0;exitDy=0;exitPerimeter=0;" parent="XxEhJsYFe1JAZc-J_-iV-2" source="XxEhJsYFe1JAZc-J_-iV-3" target="XxEhJsYFe1JAZc-J_-iV-8" edge="1">
          <mxGeometry relative="1" as="geometry">
            <mxPoint x="60" y="100" as="sourcePoint" />
            <Array as="points">
              <mxPoint x="90" y="100" />
              <mxPoint x="90" y="130" />
            </Array>
          </mxGeometry>
        </mxCell>
        <mxCell id="XxEhJsYFe1JAZc-J_-iV-23" value="" style="html=1;points=[];perimeter=orthogonalPerimeter;outlineConnect=0;targetShapes=umlLifeline;portConstraint=eastwest;newEdgeStyle={&quot;edgeStyle&quot;:&quot;elbowEdgeStyle&quot;,&quot;elbow&quot;:&quot;vertical&quot;,&quot;curved&quot;:0,&quot;rounded&quot;:0};" parent="XxEhJsYFe1JAZc-J_-iV-2" vertex="1">
          <mxGeometry x="64.97" y="280" width="10" height="530" as="geometry" />
        </mxCell>
        <mxCell id="XxEhJsYFe1JAZc-J_-iV-24" value="getBootstrapRegistryInitializersFromSpringFactoreies" style="html=1;align=left;spacingLeft=2;endArrow=block;rounded=0;edgeStyle=orthogonalEdgeStyle;curved=0;rounded=0;" parent="XxEhJsYFe1JAZc-J_-iV-2" source="XxEhJsYFe1JAZc-J_-iV-8" target="XxEhJsYFe1JAZc-J_-iV-23" edge="1">
          <mxGeometry x="-0.0002" relative="1" as="geometry">
            <mxPoint x="75" y="260" as="sourcePoint" />
            <Array as="points">
              <mxPoint x="105" y="250" />
              <mxPoint x="105" y="300" />
            </Array>
            <mxPoint as="offset" />
          </mxGeometry>
        </mxCell>
        <mxCell id="XxEhJsYFe1JAZc-J_-iV-25" value="" style="html=1;points=[];perimeter=orthogonalPerimeter;outlineConnect=0;targetShapes=umlLifeline;portConstraint=eastwest;newEdgeStyle={&quot;edgeStyle&quot;:&quot;elbowEdgeStyle&quot;,&quot;elbow&quot;:&quot;vertical&quot;,&quot;curved&quot;:0,&quot;rounded&quot;:0};" parent="XxEhJsYFe1JAZc-J_-iV-2" vertex="1">
          <mxGeometry x="75" y="340" width="10" height="440" as="geometry" />
        </mxCell>
        <mxCell id="XxEhJsYFe1JAZc-J_-iV-26" value="getSpringFactoriesInstances" style="html=1;align=left;spacingLeft=2;endArrow=block;rounded=0;edgeStyle=orthogonalEdgeStyle;curved=0;rounded=0;" parent="XxEhJsYFe1JAZc-J_-iV-2" source="XxEhJsYFe1JAZc-J_-iV-23" target="XxEhJsYFe1JAZc-J_-iV-25" edge="1">
          <mxGeometry x="-0.0003" relative="1" as="geometry">
            <mxPoint x="80" y="320" as="sourcePoint" />
            <Array as="points">
              <mxPoint x="110" y="320" />
              <mxPoint x="110" y="350" />
            </Array>
            <mxPoint as="offset" />
          </mxGeometry>
        </mxCell>
        <mxCell id="XxEhJsYFe1JAZc-J_-iV-28" value="" style="html=1;points=[];perimeter=orthogonalPerimeter;outlineConnect=0;targetShapes=umlLifeline;portConstraint=eastwest;newEdgeStyle={&quot;edgeStyle&quot;:&quot;elbowEdgeStyle&quot;,&quot;elbow&quot;:&quot;vertical&quot;,&quot;curved&quot;:0,&quot;rounded&quot;:0};" parent="XxEhJsYFe1JAZc-J_-iV-2" vertex="1">
          <mxGeometry x="85" y="380" width="10" height="160" as="geometry" />
        </mxCell>
        <mxCell id="XxEhJsYFe1JAZc-J_-iV-61" value="" style="html=1;points=[];perimeter=orthogonalPerimeter;outlineConnect=0;targetShapes=umlLifeline;portConstraint=eastwest;newEdgeStyle={&quot;edgeStyle&quot;:&quot;elbowEdgeStyle&quot;,&quot;elbow&quot;:&quot;vertical&quot;,&quot;curved&quot;:0,&quot;rounded&quot;:0};" parent="XxEhJsYFe1JAZc-J_-iV-2" vertex="1">
          <mxGeometry x="64.97" y="849" width="10" height="40" as="geometry" />
        </mxCell>
        <mxCell id="XxEhJsYFe1JAZc-J_-iV-62" value="getSpringFactoriesInstances" style="html=1;align=left;spacingLeft=2;endArrow=block;rounded=0;edgeStyle=orthogonalEdgeStyle;curved=0;rounded=0;" parent="XxEhJsYFe1JAZc-J_-iV-2" target="XxEhJsYFe1JAZc-J_-iV-61" edge="1">
          <mxGeometry relative="1" as="geometry">
            <mxPoint x="65" y="829" as="sourcePoint" />
            <Array as="points">
              <mxPoint x="105" y="829" />
              <mxPoint x="105" y="859" />
            </Array>
          </mxGeometry>
        </mxCell>
        <mxCell id="XxEhJsYFe1JAZc-J_-iV-64" value="" style="html=1;points=[];perimeter=orthogonalPerimeter;outlineConnect=0;targetShapes=umlLifeline;portConstraint=eastwest;newEdgeStyle={&quot;edgeStyle&quot;:&quot;elbowEdgeStyle&quot;,&quot;elbow&quot;:&quot;vertical&quot;,&quot;curved&quot;:0,&quot;rounded&quot;:0};" parent="XxEhJsYFe1JAZc-J_-iV-2" vertex="1">
          <mxGeometry x="65" y="929" width="10" height="40" as="geometry" />
        </mxCell>
        <mxCell id="XxEhJsYFe1JAZc-J_-iV-65" value="getSpringFactoriesInstances" style="html=1;align=left;spacingLeft=2;endArrow=block;rounded=0;edgeStyle=orthogonalEdgeStyle;curved=0;rounded=0;" parent="XxEhJsYFe1JAZc-J_-iV-2" target="XxEhJsYFe1JAZc-J_-iV-64" edge="1">
          <mxGeometry relative="1" as="geometry">
            <mxPoint x="65.02999999999997" y="909" as="sourcePoint" />
            <Array as="points">
              <mxPoint x="105.02999999999997" y="909" />
              <mxPoint x="105.02999999999997" y="939" />
            </Array>
          </mxGeometry>
        </mxCell>
        <mxCell id="XxEhJsYFe1JAZc-J_-iV-66" value="" style="edgeStyle=none;orthogonalLoop=1;jettySize=auto;html=1;shape=flexArrow;rounded=1;startSize=8;endSize=8;endWidth=15;" parent="XxEhJsYFe1JAZc-J_-iV-2" edge="1">
          <mxGeometry width="100" relative="1" as="geometry">
            <mxPoint x="260.03" y="919.08" as="sourcePoint" />
            <mxPoint x="300.03" y="918.66" as="targetPoint" />
            <Array as="points" />
          </mxGeometry>
        </mxCell>
        <mxCell id="XxEhJsYFe1JAZc-J_-iV-67" value="" style="html=1;points=[];perimeter=orthogonalPerimeter;outlineConnect=0;targetShapes=umlLifeline;portConstraint=eastwest;newEdgeStyle={&quot;edgeStyle&quot;:&quot;elbowEdgeStyle&quot;,&quot;elbow&quot;:&quot;vertical&quot;,&quot;curved&quot;:0,&quot;rounded&quot;:0};" parent="XxEhJsYFe1JAZc-J_-iV-2" vertex="1">
          <mxGeometry x="85" y="660" width="10" height="40" as="geometry" />
        </mxCell>
        <mxCell id="XxEhJsYFe1JAZc-J_-iV-68" value="creteSpringFactoriesInstances" style="html=1;align=left;spacingLeft=2;endArrow=block;rounded=0;edgeStyle=orthogonalEdgeStyle;curved=0;rounded=0;" parent="XxEhJsYFe1JAZc-J_-iV-2" source="XxEhJsYFe1JAZc-J_-iV-25" target="XxEhJsYFe1JAZc-J_-iV-67" edge="1">
          <mxGeometry relative="1" as="geometry">
            <mxPoint x="100" y="660" as="sourcePoint" />
            <Array as="points">
              <mxPoint x="130" y="650" />
              <mxPoint x="130" y="680" />
            </Array>
          </mxGeometry>
        </mxCell>
        <mxCell id="XxEhJsYFe1JAZc-J_-iV-76" value="" style="html=1;points=[];perimeter=orthogonalPerimeter;outlineConnect=0;targetShapes=umlLifeline;portConstraint=eastwest;newEdgeStyle={&quot;edgeStyle&quot;:&quot;elbowEdgeStyle&quot;,&quot;elbow&quot;:&quot;vertical&quot;,&quot;curved&quot;:0,&quot;rounded&quot;:0};" parent="XxEhJsYFe1JAZc-J_-iV-2" vertex="1">
          <mxGeometry x="64.97000000000003" y="1040" width="10" height="40" as="geometry" />
        </mxCell>
        <mxCell id="XxEhJsYFe1JAZc-J_-iV-77" value="deduceMainApplicationClass" style="html=1;align=left;spacingLeft=2;endArrow=block;rounded=0;edgeStyle=orthogonalEdgeStyle;curved=0;rounded=0;" parent="XxEhJsYFe1JAZc-J_-iV-2" source="XxEhJsYFe1JAZc-J_-iV-8" target="XxEhJsYFe1JAZc-J_-iV-76" edge="1">
          <mxGeometry relative="1" as="geometry">
            <mxPoint x="100" y="1010" as="sourcePoint" />
            <Array as="points">
              <mxPoint x="130" y="1000" />
              <mxPoint x="130" y="1050" />
            </Array>
          </mxGeometry>
        </mxCell>
        <mxCell id="XxEhJsYFe1JAZc-J_-iV-78" value="" style="html=1;points=[];perimeter=orthogonalPerimeter;outlineConnect=0;targetShapes=umlLifeline;portConstraint=eastwest;newEdgeStyle={&quot;edgeStyle&quot;:&quot;elbowEdgeStyle&quot;,&quot;elbow&quot;:&quot;vertical&quot;,&quot;curved&quot;:0,&quot;rounded&quot;:0};" parent="XxEhJsYFe1JAZc-J_-iV-2" vertex="1">
          <mxGeometry x="55" y="1180" width="10" height="40" as="geometry" />
        </mxCell>
        <mxCell id="XxEhJsYFe1JAZc-J_-iV-79" value="run" style="html=1;align=left;spacingLeft=2;endArrow=block;rounded=0;edgeStyle=orthogonalEdgeStyle;curved=0;rounded=0;" parent="XxEhJsYFe1JAZc-J_-iV-2" source="XxEhJsYFe1JAZc-J_-iV-3" target="XxEhJsYFe1JAZc-J_-iV-78" edge="1">
          <mxGeometry relative="1" as="geometry">
            <mxPoint x="100" y="1160" as="sourcePoint" />
            <Array as="points">
              <mxPoint x="130" y="1160" />
              <mxPoint x="130" y="1200" />
            </Array>
          </mxGeometry>
        </mxCell>
        <mxCell id="XxEhJsYFe1JAZc-J_-iV-6" value="Run" style="html=1;verticalAlign=bottom;startArrow=oval;startFill=1;endArrow=block;startSize=8;edgeStyle=elbowEdgeStyle;elbow=vertical;curved=0;rounded=0;" parent="1" source="XxEhJsYFe1JAZc-J_-iV-1" edge="1">
          <mxGeometry width="60" relative="1" as="geometry">
            <mxPoint x="-490" y="150" as="sourcePoint" />
            <mxPoint x="-430" y="150" as="targetPoint" />
          </mxGeometry>
        </mxCell>
        <mxCell id="XxEhJsYFe1JAZc-J_-iV-12" value=":WebApplicationType" style="shape=umlLifeline;perimeter=lifelinePerimeter;whiteSpace=wrap;html=1;container=1;dropTarget=0;collapsible=0;recursiveResize=0;outlineConnect=0;portConstraint=eastwest;newEdgeStyle={&quot;edgeStyle&quot;:&quot;elbowEdgeStyle&quot;,&quot;elbow&quot;:&quot;vertical&quot;,&quot;curved&quot;:0,&quot;rounded&quot;:0};" parent="1" vertex="1">
          <mxGeometry x="-130" y="30" width="130" height="1260" as="geometry" />
        </mxCell>
        <mxCell id="XxEhJsYFe1JAZc-J_-iV-20" value="" style="html=1;points=[];perimeter=orthogonalPerimeter;outlineConnect=0;targetShapes=umlLifeline;portConstraint=eastwest;newEdgeStyle={&quot;edgeStyle&quot;:&quot;elbowEdgeStyle&quot;,&quot;elbow&quot;:&quot;vertical&quot;,&quot;curved&quot;:0,&quot;rounded&quot;:0};" parent="XxEhJsYFe1JAZc-J_-iV-12" vertex="1">
          <mxGeometry x="60" y="150" width="10" height="80" as="geometry" />
        </mxCell>
        <mxCell id="XxEhJsYFe1JAZc-J_-iV-21" value="deduceFromClasspath" style="html=1;verticalAlign=bottom;endArrow=block;edgeStyle=elbowEdgeStyle;elbow=vertical;curved=0;rounded=0;" parent="1" target="XxEhJsYFe1JAZc-J_-iV-20" edge="1">
          <mxGeometry relative="1" as="geometry">
            <mxPoint x="-405" y="179.9999999999999" as="sourcePoint" />
            <Array as="points">
              <mxPoint x="-322" y="180" />
            </Array>
          </mxGeometry>
        </mxCell>
        <mxCell id="XxEhJsYFe1JAZc-J_-iV-22" value="return" style="html=1;verticalAlign=bottom;endArrow=open;dashed=1;endSize=8;edgeStyle=elbowEdgeStyle;elbow=vertical;curved=0;rounded=0;" parent="1" source="XxEhJsYFe1JAZc-J_-iV-20" edge="1">
          <mxGeometry relative="1" as="geometry">
            <mxPoint x="-405" y="259.9999999999999" as="targetPoint" />
            <Array as="points">
              <mxPoint x="-330" y="260" />
            </Array>
          </mxGeometry>
        </mxCell>
        <mxCell id="XxEhJsYFe1JAZc-J_-iV-30" value=":ClassUtils" style="shape=umlLifeline;perimeter=lifelinePerimeter;whiteSpace=wrap;html=1;container=1;dropTarget=0;collapsible=0;recursiveResize=0;outlineConnect=0;portConstraint=eastwest;newEdgeStyle={&quot;edgeStyle&quot;:&quot;elbowEdgeStyle&quot;,&quot;elbow&quot;:&quot;vertical&quot;,&quot;curved&quot;:0,&quot;rounded&quot;:0};" parent="1" vertex="1">
          <mxGeometry x="40" y="30" width="130" height="1250" as="geometry" />
        </mxCell>
        <mxCell id="XxEhJsYFe1JAZc-J_-iV-37" value="" style="html=1;points=[];perimeter=orthogonalPerimeter;outlineConnect=0;targetShapes=umlLifeline;portConstraint=eastwest;newEdgeStyle={&quot;edgeStyle&quot;:&quot;elbowEdgeStyle&quot;,&quot;elbow&quot;:&quot;vertical&quot;,&quot;curved&quot;:0,&quot;rounded&quot;:0};" parent="XxEhJsYFe1JAZc-J_-iV-30" vertex="1">
          <mxGeometry x="60" y="480" width="10" height="30" as="geometry" />
        </mxCell>
        <mxCell id="XxEhJsYFe1JAZc-J_-iV-35" value=":SpringFactoriesLoader" style="shape=umlLifeline;perimeter=lifelinePerimeter;whiteSpace=wrap;html=1;container=1;dropTarget=0;collapsible=0;recursiveResize=0;outlineConnect=0;portConstraint=eastwest;newEdgeStyle={&quot;edgeStyle&quot;:&quot;elbowEdgeStyle&quot;,&quot;elbow&quot;:&quot;vertical&quot;,&quot;curved&quot;:0,&quot;rounded&quot;:0};" parent="1" vertex="1">
          <mxGeometry x="460" y="30" width="130" height="1250" as="geometry" />
        </mxCell>
        <mxCell id="XxEhJsYFe1JAZc-J_-iV-47" value="" style="html=1;points=[];perimeter=orthogonalPerimeter;outlineConnect=0;targetShapes=umlLifeline;portConstraint=eastwest;newEdgeStyle={&quot;edgeStyle&quot;:&quot;elbowEdgeStyle&quot;,&quot;elbow&quot;:&quot;vertical&quot;,&quot;curved&quot;:0,&quot;rounded&quot;:0};" parent="XxEhJsYFe1JAZc-J_-iV-35" vertex="1">
          <mxGeometry x="60" y="551" width="10" height="80" as="geometry" />
        </mxCell>
        <mxCell id="XxEhJsYFe1JAZc-J_-iV-38" value="getDefaultClassloader" style="html=1;verticalAlign=bottom;endArrow=block;edgeStyle=elbowEdgeStyle;elbow=vertical;curved=0;rounded=0;" parent="1" edge="1">
          <mxGeometry relative="1" as="geometry">
            <mxPoint x="-374.9999999999998" y="510" as="sourcePoint" />
            <mxPoint x="100" y="510" as="targetPoint" />
            <Array as="points">
              <mxPoint y="510" />
              <mxPoint x="60" y="500" />
            </Array>
            <mxPoint as="offset" />
          </mxGeometry>
        </mxCell>
        <mxCell id="XxEhJsYFe1JAZc-J_-iV-39" value="return" style="html=1;verticalAlign=bottom;endArrow=open;dashed=1;endSize=8;edgeStyle=elbowEdgeStyle;elbow=vertical;curved=0;rounded=0;" parent="1" edge="1">
          <mxGeometry relative="1" as="geometry">
            <mxPoint x="-374.9999999999998" y="540" as="targetPoint" />
            <mxPoint x="100" y="540" as="sourcePoint" />
            <Array as="points">
              <mxPoint x="-150" y="540" />
            </Array>
          </mxGeometry>
        </mxCell>
        <mxCell id="XxEhJsYFe1JAZc-J_-iV-40" value=":ResourceLoader" style="shape=umlLifeline;perimeter=lifelinePerimeter;whiteSpace=wrap;html=1;container=1;dropTarget=0;collapsible=0;recursiveResize=0;outlineConnect=0;portConstraint=eastwest;newEdgeStyle={&quot;edgeStyle&quot;:&quot;elbowEdgeStyle&quot;,&quot;elbow&quot;:&quot;vertical&quot;,&quot;curved&quot;:0,&quot;rounded&quot;:0};" parent="1" vertex="1">
          <mxGeometry x="190" y="30" width="130" height="1250" as="geometry" />
        </mxCell>
        <mxCell id="XxEhJsYFe1JAZc-J_-iV-42" value="" style="html=1;points=[];perimeter=orthogonalPerimeter;outlineConnect=0;targetShapes=umlLifeline;portConstraint=eastwest;newEdgeStyle={&quot;edgeStyle&quot;:&quot;elbowEdgeStyle&quot;,&quot;elbow&quot;:&quot;vertical&quot;,&quot;curved&quot;:0,&quot;rounded&quot;:0};" parent="XxEhJsYFe1JAZc-J_-iV-40" vertex="1">
          <mxGeometry x="60" y="420" width="10" height="20" as="geometry" />
        </mxCell>
        <mxCell id="XxEhJsYFe1JAZc-J_-iV-44" value="return" style="html=1;verticalAlign=bottom;endArrow=open;dashed=1;endSize=8;edgeStyle=elbowEdgeStyle;elbow=vertical;curved=0;rounded=0;" parent="XxEhJsYFe1JAZc-J_-iV-40" target="XxEhJsYFe1JAZc-J_-iV-28" edge="1">
          <mxGeometry relative="1" as="geometry">
            <mxPoint x="-419.9999999999998" y="430" as="targetPoint" />
            <mxPoint x="60" y="440" as="sourcePoint" />
            <Array as="points">
              <mxPoint x="-10" y="440" />
              <mxPoint x="-195" y="430" />
            </Array>
          </mxGeometry>
        </mxCell>
        <mxCell id="XxEhJsYFe1JAZc-J_-iV-43" value="getClassLoader" style="html=1;verticalAlign=bottom;endArrow=block;edgeStyle=elbowEdgeStyle;elbow=vertical;curved=0;rounded=0;" parent="1" source="XxEhJsYFe1JAZc-J_-iV-28" target="XxEhJsYFe1JAZc-J_-iV-42" edge="1">
          <mxGeometry x="-0.0003" relative="1" as="geometry">
            <mxPoint x="-379.9999999999998" y="427.0799999999999" as="sourcePoint" />
            <Array as="points">
              <mxPoint x="40" y="450" />
              <mxPoint x="180" y="440" />
              <mxPoint x="-330" y="430" />
              <mxPoint x="195" y="417" />
            </Array>
            <mxPoint as="offset" />
            <mxPoint x="245" y="429" as="targetPoint" />
          </mxGeometry>
        </mxCell>
        <mxCell id="XxEhJsYFe1JAZc-J_-iV-45" value="Alt" style="shape=umlFrame;whiteSpace=wrap;html=1;pointerEvents=0;" parent="1" vertex="1">
          <mxGeometry x="-490" y="430" width="790" height="120" as="geometry" />
        </mxCell>
        <mxCell id="XxEhJsYFe1JAZc-J_-iV-46" value="" style="line;strokeWidth=1;fillColor=#dae8fc;align=left;verticalAlign=middle;spacingTop=-1;spacingLeft=3;spacingRight=3;rotatable=0;labelPosition=right;points=[];portConstraint=eastwest;strokeColor=#6c8ebf;dashed=1;" parent="1" vertex="1">
          <mxGeometry x="-490" y="482" width="790" height="8" as="geometry" />
        </mxCell>
        <mxCell id="XxEhJsYFe1JAZc-J_-iV-29" value="getClassLoader" style="html=1;align=left;spacingLeft=2;endArrow=block;rounded=0;edgeStyle=orthogonalEdgeStyle;curved=0;rounded=0;" parent="1" source="XxEhJsYFe1JAZc-J_-iV-25" target="XxEhJsYFe1JAZc-J_-iV-28" edge="1">
          <mxGeometry relative="1" as="geometry">
            <mxPoint x="-380" y="390" as="sourcePoint" />
            <Array as="points">
              <mxPoint x="-350" y="390" />
              <mxPoint x="-350" y="420" />
            </Array>
          </mxGeometry>
        </mxCell>
        <mxCell id="XxEhJsYFe1JAZc-J_-iV-48" value="loadFactoryNames" style="html=1;verticalAlign=bottom;endArrow=block;edgeStyle=elbowEdgeStyle;elbow=vertical;curved=0;rounded=0;" parent="1" source="XxEhJsYFe1JAZc-J_-iV-25" edge="1">
          <mxGeometry relative="1" as="geometry">
            <mxPoint x="-380" y="581" as="sourcePoint" />
            <mxPoint x="520" y="581" as="targetPoint" />
          </mxGeometry>
        </mxCell>
        <mxCell id="XxEhJsYFe1JAZc-J_-iV-49" value="return" style="html=1;verticalAlign=bottom;endArrow=open;dashed=1;endSize=8;edgeStyle=elbowEdgeStyle;elbow=vertical;curved=0;rounded=0;" parent="1" target="XxEhJsYFe1JAZc-J_-iV-25" edge="1">
          <mxGeometry relative="1" as="geometry">
            <mxPoint x="-374.9999999999998" y="660.9166666666667" as="targetPoint" />
            <mxPoint x="520" y="660.9166666666667" as="sourcePoint" />
          </mxGeometry>
        </mxCell>
        <mxCell id="XxEhJsYFe1JAZc-J_-iV-50" value=":PropertiesLoaderUtils" style="shape=umlLifeline;perimeter=lifelinePerimeter;whiteSpace=wrap;html=1;container=1;dropTarget=0;collapsible=0;recursiveResize=0;outlineConnect=0;portConstraint=eastwest;newEdgeStyle={&quot;edgeStyle&quot;:&quot;elbowEdgeStyle&quot;,&quot;elbow&quot;:&quot;vertical&quot;,&quot;curved&quot;:0,&quot;rounded&quot;:0};" parent="1" vertex="1">
          <mxGeometry x="640" y="30" width="130" height="1250" as="geometry" />
        </mxCell>
        <mxCell id="XxEhJsYFe1JAZc-J_-iV-52" value="" style="html=1;points=[];perimeter=orthogonalPerimeter;outlineConnect=0;targetShapes=umlLifeline;portConstraint=eastwest;newEdgeStyle={&quot;edgeStyle&quot;:&quot;elbowEdgeStyle&quot;,&quot;elbow&quot;:&quot;vertical&quot;,&quot;curved&quot;:0,&quot;rounded&quot;:0};" parent="XxEhJsYFe1JAZc-J_-iV-50" vertex="1">
          <mxGeometry x="60" y="570.58" width="10" height="40" as="geometry" />
        </mxCell>
        <mxCell id="XxEhJsYFe1JAZc-J_-iV-53" value="loadProperties" style="html=1;verticalAlign=bottom;endArrow=block;edgeStyle=elbowEdgeStyle;elbow=vertical;curved=0;rounded=0;" parent="XxEhJsYFe1JAZc-J_-iV-50" target="XxEhJsYFe1JAZc-J_-iV-52" edge="1">
          <mxGeometry relative="1" as="geometry">
            <mxPoint x="-110" y="570.58" as="sourcePoint" />
            <Array as="points">
              <mxPoint x="-40" y="570.58" />
              <mxPoint x="-30" y="540.58" />
            </Array>
          </mxGeometry>
        </mxCell>
        <mxCell id="XxEhJsYFe1JAZc-J_-iV-54" value="return" style="html=1;verticalAlign=bottom;endArrow=open;dashed=1;endSize=8;edgeStyle=elbowEdgeStyle;elbow=vertical;curved=0;rounded=0;" parent="XxEhJsYFe1JAZc-J_-iV-50" source="XxEhJsYFe1JAZc-J_-iV-52" edge="1">
          <mxGeometry relative="1" as="geometry">
            <mxPoint x="-110" y="610.58" as="targetPoint" />
            <Array as="points">
              <mxPoint y="610.58" />
            </Array>
          </mxGeometry>
        </mxCell>
        <mxCell id="XxEhJsYFe1JAZc-J_-iV-56" value="Bootstrapper&lt;br&gt;BootStapRegistryInitializer&lt;br&gt;" style="rounded=0;whiteSpace=wrap;html=1;" parent="1" vertex="1">
          <mxGeometry x="-160" y="340" width="190" height="40" as="geometry" />
        </mxCell>
        <mxCell id="XxEhJsYFe1JAZc-J_-iV-57" value="" style="edgeStyle=none;orthogonalLoop=1;jettySize=auto;html=1;shape=flexArrow;rounded=1;startSize=8;endSize=8;endWidth=15;" parent="1" edge="1">
          <mxGeometry width="100" relative="1" as="geometry">
            <mxPoint x="-208" y="359.42" as="sourcePoint" />
            <mxPoint x="-168" y="359" as="targetPoint" />
            <Array as="points" />
          </mxGeometry>
        </mxCell>
        <mxCell id="XxEhJsYFe1JAZc-J_-iV-58" value="ApplicationContextInitializer&lt;br&gt;" style="rounded=0;whiteSpace=wrap;html=1;" parent="1" vertex="1">
          <mxGeometry x="-160" y="859" width="190" height="20" as="geometry" />
        </mxCell>
        <mxCell id="XxEhJsYFe1JAZc-J_-iV-59" value="ApplicationListener" style="rounded=0;whiteSpace=wrap;html=1;" parent="1" vertex="1">
          <mxGeometry x="-160" y="939" width="190" height="20" as="geometry" />
        </mxCell>
        <mxCell id="XxEhJsYFe1JAZc-J_-iV-63" value="" style="edgeStyle=none;orthogonalLoop=1;jettySize=auto;html=1;shape=flexArrow;rounded=1;startSize=8;endSize=8;endWidth=15;" parent="1" edge="1">
          <mxGeometry width="100" relative="1" as="geometry">
            <mxPoint x="-210" y="869.08" as="sourcePoint" />
            <mxPoint x="-170" y="868.66" as="targetPoint" />
            <Array as="points" />
          </mxGeometry>
        </mxCell>
        <mxCell id="XxEhJsYFe1JAZc-J_-iV-69" value=":AnnotationAwareOrderComparator" style="shape=umlLifeline;perimeter=lifelinePerimeter;whiteSpace=wrap;html=1;container=1;dropTarget=0;collapsible=0;recursiveResize=0;outlineConnect=0;portConstraint=eastwest;newEdgeStyle={&quot;edgeStyle&quot;:&quot;elbowEdgeStyle&quot;,&quot;elbow&quot;:&quot;vertical&quot;,&quot;curved&quot;:0,&quot;rounded&quot;:0};" parent="1" vertex="1">
          <mxGeometry x="850" y="30" width="210" height="1250" as="geometry" />
        </mxCell>
        <mxCell id="XxEhJsYFe1JAZc-J_-iV-73" value="" style="html=1;points=[];perimeter=orthogonalPerimeter;outlineConnect=0;targetShapes=umlLifeline;portConstraint=eastwest;newEdgeStyle={&quot;edgeStyle&quot;:&quot;elbowEdgeStyle&quot;,&quot;elbow&quot;:&quot;vertical&quot;,&quot;curved&quot;:0,&quot;rounded&quot;:0};" parent="XxEhJsYFe1JAZc-J_-iV-69" vertex="1">
          <mxGeometry x="100" y="720" width="10" height="50" as="geometry" />
        </mxCell>
        <mxCell id="XxEhJsYFe1JAZc-J_-iV-74" value="sort" style="html=1;verticalAlign=bottom;endArrow=block;edgeStyle=elbowEdgeStyle;elbow=vertical;curved=0;rounded=0;" parent="1" source="XxEhJsYFe1JAZc-J_-iV-25" target="XxEhJsYFe1JAZc-J_-iV-73" edge="1">
          <mxGeometry relative="1" as="geometry">
            <mxPoint x="980" y="710" as="sourcePoint" />
            <Array as="points">
              <mxPoint x="940" y="750" />
            </Array>
          </mxGeometry>
        </mxCell>
        <mxCell id="vyO_-9OmGo_VunlXmOem-1" value="SpringApplication&lt;br&gt;" style="shape=umlActor;verticalLabelPosition=bottom;verticalAlign=top;html=1;" vertex="1" parent="1">
          <mxGeometry x="-650" y="1460" width="30" height="60" as="geometry" />
        </mxCell>
        <mxCell id="vyO_-9OmGo_VunlXmOem-6" value=":SpringApplication" style="shape=umlLifeline;perimeter=lifelinePerimeter;whiteSpace=wrap;html=1;container=1;dropTarget=0;collapsible=0;recursiveResize=0;outlineConnect=0;portConstraint=eastwest;newEdgeStyle={&quot;edgeStyle&quot;:&quot;elbowEdgeStyle&quot;,&quot;elbow&quot;:&quot;vertical&quot;,&quot;curved&quot;:0,&quot;rounded&quot;:0};" vertex="1" parent="1">
          <mxGeometry x="-460" y="1390" width="100" height="1610" as="geometry" />
        </mxCell>
        <mxCell id="vyO_-9OmGo_VunlXmOem-10" value="" style="html=1;points=[];perimeter=orthogonalPerimeter;outlineConnect=0;targetShapes=umlLifeline;portConstraint=eastwest;newEdgeStyle={&quot;edgeStyle&quot;:&quot;elbowEdgeStyle&quot;,&quot;elbow&quot;:&quot;vertical&quot;,&quot;curved&quot;:0,&quot;rounded&quot;:0};" vertex="1" parent="vyO_-9OmGo_VunlXmOem-6">
          <mxGeometry x="45" y="90" width="10" height="20" as="geometry" />
        </mxCell>
        <mxCell id="vyO_-9OmGo_VunlXmOem-11" value="createBootstrapContext" style="html=1;align=left;spacingLeft=2;endArrow=block;rounded=0;edgeStyle=orthogonalEdgeStyle;curved=0;rounded=0;" edge="1" target="vyO_-9OmGo_VunlXmOem-10" parent="vyO_-9OmGo_VunlXmOem-6">
          <mxGeometry relative="1" as="geometry">
            <mxPoint x="50" y="70" as="sourcePoint" />
            <Array as="points">
              <mxPoint x="80" y="100" />
            </Array>
          </mxGeometry>
        </mxCell>
        <mxCell id="vyO_-9OmGo_VunlXmOem-12" value="" style="html=1;points=[];perimeter=orthogonalPerimeter;outlineConnect=0;targetShapes=umlLifeline;portConstraint=eastwest;newEdgeStyle={&quot;edgeStyle&quot;:&quot;elbowEdgeStyle&quot;,&quot;elbow&quot;:&quot;vertical&quot;,&quot;curved&quot;:0,&quot;rounded&quot;:0};" vertex="1" parent="vyO_-9OmGo_VunlXmOem-6">
          <mxGeometry x="45" y="140" width="10" height="120" as="geometry" />
        </mxCell>
        <mxCell id="vyO_-9OmGo_VunlXmOem-13" value="getRunlisteners" style="html=1;align=left;spacingLeft=2;endArrow=block;rounded=0;edgeStyle=orthogonalEdgeStyle;curved=0;rounded=0;" edge="1" target="vyO_-9OmGo_VunlXmOem-12" parent="vyO_-9OmGo_VunlXmOem-6">
          <mxGeometry relative="1" as="geometry">
            <mxPoint x="50" y="120" as="sourcePoint" />
            <Array as="points">
              <mxPoint x="90" y="120" />
              <mxPoint x="90" y="160" />
            </Array>
          </mxGeometry>
        </mxCell>
        <mxCell id="vyO_-9OmGo_VunlXmOem-14" value="" style="html=1;points=[];perimeter=orthogonalPerimeter;outlineConnect=0;targetShapes=umlLifeline;portConstraint=eastwest;newEdgeStyle={&quot;edgeStyle&quot;:&quot;elbowEdgeStyle&quot;,&quot;elbow&quot;:&quot;vertical&quot;,&quot;curved&quot;:0,&quot;rounded&quot;:0};" vertex="1" parent="vyO_-9OmGo_VunlXmOem-6">
          <mxGeometry x="55" y="190" width="10" height="40" as="geometry" />
        </mxCell>
        <mxCell id="vyO_-9OmGo_VunlXmOem-15" value="getSpringFactoriesInstances" style="html=1;align=left;spacingLeft=2;endArrow=block;rounded=0;edgeStyle=orthogonalEdgeStyle;curved=0;rounded=0;" edge="1" target="vyO_-9OmGo_VunlXmOem-14" parent="vyO_-9OmGo_VunlXmOem-6" source="vyO_-9OmGo_VunlXmOem-12">
          <mxGeometry relative="1" as="geometry">
            <mxPoint x="70" y="170" as="sourcePoint" />
            <Array as="points">
              <mxPoint x="100" y="170" />
              <mxPoint x="100" y="210" />
            </Array>
          </mxGeometry>
        </mxCell>
        <mxCell id="vyO_-9OmGo_VunlXmOem-30" value="" style="html=1;points=[];perimeter=orthogonalPerimeter;outlineConnect=0;targetShapes=umlLifeline;portConstraint=eastwest;newEdgeStyle={&quot;edgeStyle&quot;:&quot;elbowEdgeStyle&quot;,&quot;elbow&quot;:&quot;vertical&quot;,&quot;curved&quot;:0,&quot;rounded&quot;:0};" vertex="1" parent="vyO_-9OmGo_VunlXmOem-6">
          <mxGeometry x="45" y="340" width="10" height="580" as="geometry" />
        </mxCell>
        <mxCell id="vyO_-9OmGo_VunlXmOem-31" value="prepareEnviroment" style="html=1;align=left;spacingLeft=2;endArrow=block;rounded=0;edgeStyle=orthogonalEdgeStyle;curved=0;rounded=0;" edge="1" target="vyO_-9OmGo_VunlXmOem-30" parent="vyO_-9OmGo_VunlXmOem-6">
          <mxGeometry relative="1" as="geometry">
            <mxPoint x="50" y="320" as="sourcePoint" />
            <Array as="points">
              <mxPoint x="80" y="350" />
            </Array>
          </mxGeometry>
        </mxCell>
        <mxCell id="vyO_-9OmGo_VunlXmOem-32" value="" style="html=1;points=[];perimeter=orthogonalPerimeter;outlineConnect=0;targetShapes=umlLifeline;portConstraint=eastwest;newEdgeStyle={&quot;edgeStyle&quot;:&quot;elbowEdgeStyle&quot;,&quot;elbow&quot;:&quot;vertical&quot;,&quot;curved&quot;:0,&quot;rounded&quot;:0};" vertex="1" parent="vyO_-9OmGo_VunlXmOem-6">
          <mxGeometry x="55" y="390" width="10" height="40" as="geometry" />
        </mxCell>
        <mxCell id="vyO_-9OmGo_VunlXmOem-33" value="getOrCreateEnvironment" style="html=1;align=left;spacingLeft=2;endArrow=block;rounded=0;edgeStyle=orthogonalEdgeStyle;curved=0;rounded=0;" edge="1" target="vyO_-9OmGo_VunlXmOem-32" parent="vyO_-9OmGo_VunlXmOem-6" source="vyO_-9OmGo_VunlXmOem-30">
          <mxGeometry relative="1" as="geometry">
            <mxPoint x="60" y="370" as="sourcePoint" />
            <Array as="points">
              <mxPoint x="90" y="370" />
              <mxPoint x="90" y="410" />
            </Array>
          </mxGeometry>
        </mxCell>
        <mxCell id="vyO_-9OmGo_VunlXmOem-43" value="" style="html=1;points=[];perimeter=orthogonalPerimeter;outlineConnect=0;targetShapes=umlLifeline;portConstraint=eastwest;newEdgeStyle={&quot;edgeStyle&quot;:&quot;elbowEdgeStyle&quot;,&quot;elbow&quot;:&quot;vertical&quot;,&quot;curved&quot;:0,&quot;rounded&quot;:0};" vertex="1" parent="vyO_-9OmGo_VunlXmOem-6">
          <mxGeometry x="55" y="460" width="10" height="190" as="geometry" />
        </mxCell>
        <mxCell id="vyO_-9OmGo_VunlXmOem-44" value="configureEnvironment" style="html=1;align=left;spacingLeft=2;endArrow=block;rounded=0;edgeStyle=orthogonalEdgeStyle;curved=0;rounded=0;" edge="1" parent="vyO_-9OmGo_VunlXmOem-6" target="vyO_-9OmGo_VunlXmOem-43">
          <mxGeometry relative="1" as="geometry">
            <mxPoint x="55" y="440" as="sourcePoint" />
            <Array as="points">
              <mxPoint x="90" y="440" />
              <mxPoint x="90" y="480" />
            </Array>
          </mxGeometry>
        </mxCell>
        <mxCell id="vyO_-9OmGo_VunlXmOem-45" value="" style="html=1;points=[];perimeter=orthogonalPerimeter;outlineConnect=0;targetShapes=umlLifeline;portConstraint=eastwest;newEdgeStyle={&quot;edgeStyle&quot;:&quot;elbowEdgeStyle&quot;,&quot;elbow&quot;:&quot;vertical&quot;,&quot;curved&quot;:0,&quot;rounded&quot;:0};" vertex="1" parent="vyO_-9OmGo_VunlXmOem-6">
          <mxGeometry x="65" y="510" width="10" height="40" as="geometry" />
        </mxCell>
        <mxCell id="vyO_-9OmGo_VunlXmOem-46" value="configurePropertySources" style="html=1;align=left;spacingLeft=2;endArrow=block;rounded=0;edgeStyle=orthogonalEdgeStyle;curved=0;rounded=0;" edge="1" parent="vyO_-9OmGo_VunlXmOem-6" target="vyO_-9OmGo_VunlXmOem-45">
          <mxGeometry relative="1" as="geometry">
            <mxPoint x="65" y="490" as="sourcePoint" />
            <Array as="points">
              <mxPoint x="100" y="490" />
              <mxPoint x="100" y="530" />
            </Array>
          </mxGeometry>
        </mxCell>
        <mxCell id="vyO_-9OmGo_VunlXmOem-47" value="" style="html=1;points=[];perimeter=orthogonalPerimeter;outlineConnect=0;targetShapes=umlLifeline;portConstraint=eastwest;newEdgeStyle={&quot;edgeStyle&quot;:&quot;elbowEdgeStyle&quot;,&quot;elbow&quot;:&quot;vertical&quot;,&quot;curved&quot;:0,&quot;rounded&quot;:0};" vertex="1" parent="vyO_-9OmGo_VunlXmOem-6">
          <mxGeometry x="65" y="580" width="10" height="40" as="geometry" />
        </mxCell>
        <mxCell id="vyO_-9OmGo_VunlXmOem-48" value="configureProfiles(Empty Method)" style="html=1;align=left;spacingLeft=2;endArrow=block;rounded=0;edgeStyle=orthogonalEdgeStyle;curved=0;rounded=0;" edge="1" parent="vyO_-9OmGo_VunlXmOem-6" target="vyO_-9OmGo_VunlXmOem-47">
          <mxGeometry relative="1" as="geometry">
            <mxPoint x="65" y="560" as="sourcePoint" />
            <Array as="points">
              <mxPoint x="100" y="560" />
              <mxPoint x="100" y="600" />
            </Array>
            <mxPoint as="offset" />
          </mxGeometry>
        </mxCell>
        <mxCell id="vyO_-9OmGo_VunlXmOem-63" value="" style="html=1;points=[];perimeter=orthogonalPerimeter;outlineConnect=0;targetShapes=umlLifeline;portConstraint=eastwest;newEdgeStyle={&quot;edgeStyle&quot;:&quot;elbowEdgeStyle&quot;,&quot;elbow&quot;:&quot;vertical&quot;,&quot;curved&quot;:0,&quot;rounded&quot;:0};" vertex="1" parent="vyO_-9OmGo_VunlXmOem-6">
          <mxGeometry x="55" y="790" width="10" height="40" as="geometry" />
        </mxCell>
        <mxCell id="vyO_-9OmGo_VunlXmOem-64" value="bindToSpringApplication" style="html=1;align=left;spacingLeft=2;endArrow=block;rounded=0;edgeStyle=orthogonalEdgeStyle;curved=0;rounded=0;" edge="1" target="vyO_-9OmGo_VunlXmOem-63" parent="vyO_-9OmGo_VunlXmOem-6" source="vyO_-9OmGo_VunlXmOem-30">
          <mxGeometry relative="1" as="geometry">
            <mxPoint x="60" y="770" as="sourcePoint" />
            <Array as="points">
              <mxPoint x="90" y="770" />
              <mxPoint x="90" y="810" />
            </Array>
          </mxGeometry>
        </mxCell>
        <mxCell id="vyO_-9OmGo_VunlXmOem-67" value="" style="html=1;points=[];perimeter=orthogonalPerimeter;outlineConnect=0;targetShapes=umlLifeline;portConstraint=eastwest;newEdgeStyle={&quot;edgeStyle&quot;:&quot;elbowEdgeStyle&quot;,&quot;elbow&quot;:&quot;vertical&quot;,&quot;curved&quot;:0,&quot;rounded&quot;:0};" vertex="1" parent="vyO_-9OmGo_VunlXmOem-6">
          <mxGeometry x="45" y="1000" width="10" height="40" as="geometry" />
        </mxCell>
        <mxCell id="vyO_-9OmGo_VunlXmOem-68" value="configureIgnoreBeanInfo" style="html=1;align=left;spacingLeft=2;endArrow=block;rounded=0;edgeStyle=orthogonalEdgeStyle;curved=0;rounded=0;" edge="1" target="vyO_-9OmGo_VunlXmOem-67" parent="vyO_-9OmGo_VunlXmOem-6">
          <mxGeometry relative="1" as="geometry">
            <mxPoint x="50" y="980" as="sourcePoint" />
            <Array as="points">
              <mxPoint x="80" y="1010" />
            </Array>
          </mxGeometry>
        </mxCell>
        <mxCell id="vyO_-9OmGo_VunlXmOem-69" value="" style="html=1;points=[];perimeter=orthogonalPerimeter;outlineConnect=0;targetShapes=umlLifeline;portConstraint=eastwest;newEdgeStyle={&quot;edgeStyle&quot;:&quot;elbowEdgeStyle&quot;,&quot;elbow&quot;:&quot;vertical&quot;,&quot;curved&quot;:0,&quot;rounded&quot;:0};" vertex="1" parent="vyO_-9OmGo_VunlXmOem-6">
          <mxGeometry x="45" y="1070" width="10" height="40" as="geometry" />
        </mxCell>
        <mxCell id="vyO_-9OmGo_VunlXmOem-70" value="printBanner" style="html=1;align=left;spacingLeft=2;endArrow=block;rounded=0;edgeStyle=orthogonalEdgeStyle;curved=0;rounded=0;" edge="1" parent="vyO_-9OmGo_VunlXmOem-6" target="vyO_-9OmGo_VunlXmOem-69">
          <mxGeometry x="0.0009" relative="1" as="geometry">
            <mxPoint x="50" y="1050" as="sourcePoint" />
            <Array as="points">
              <mxPoint x="80" y="1080" />
            </Array>
            <mxPoint as="offset" />
          </mxGeometry>
        </mxCell>
        <mxCell id="vyO_-9OmGo_VunlXmOem-71" value="" style="html=1;points=[];perimeter=orthogonalPerimeter;outlineConnect=0;targetShapes=umlLifeline;portConstraint=eastwest;newEdgeStyle={&quot;edgeStyle&quot;:&quot;elbowEdgeStyle&quot;,&quot;elbow&quot;:&quot;vertical&quot;,&quot;curved&quot;:0,&quot;rounded&quot;:0};" vertex="1" parent="vyO_-9OmGo_VunlXmOem-6">
          <mxGeometry x="45" y="1140" width="10" height="40" as="geometry" />
        </mxCell>
        <mxCell id="vyO_-9OmGo_VunlXmOem-72" value="createApplicationContext" style="html=1;align=left;spacingLeft=2;endArrow=block;rounded=0;edgeStyle=orthogonalEdgeStyle;curved=0;rounded=0;" edge="1" parent="vyO_-9OmGo_VunlXmOem-6" target="vyO_-9OmGo_VunlXmOem-71">
          <mxGeometry relative="1" as="geometry">
            <mxPoint x="50" y="1120" as="sourcePoint" />
            <Array as="points">
              <mxPoint x="80" y="1150" />
            </Array>
          </mxGeometry>
        </mxCell>
        <mxCell id="vyO_-9OmGo_VunlXmOem-73" value="" style="html=1;points=[];perimeter=orthogonalPerimeter;outlineConnect=0;targetShapes=umlLifeline;portConstraint=eastwest;newEdgeStyle={&quot;edgeStyle&quot;:&quot;elbowEdgeStyle&quot;,&quot;elbow&quot;:&quot;vertical&quot;,&quot;curved&quot;:0,&quot;rounded&quot;:0};" vertex="1" parent="vyO_-9OmGo_VunlXmOem-6">
          <mxGeometry x="45" y="1210" width="10" height="170" as="geometry" />
        </mxCell>
        <mxCell id="vyO_-9OmGo_VunlXmOem-74" value="prepareContext" style="html=1;align=left;spacingLeft=2;endArrow=block;rounded=0;edgeStyle=orthogonalEdgeStyle;curved=0;rounded=0;" edge="1" parent="vyO_-9OmGo_VunlXmOem-6" target="vyO_-9OmGo_VunlXmOem-73">
          <mxGeometry relative="1" as="geometry">
            <mxPoint x="50" y="1190" as="sourcePoint" />
            <Array as="points">
              <mxPoint x="80" y="1220" />
            </Array>
          </mxGeometry>
        </mxCell>
        <mxCell id="vyO_-9OmGo_VunlXmOem-75" value="" style="html=1;points=[];perimeter=orthogonalPerimeter;outlineConnect=0;targetShapes=umlLifeline;portConstraint=eastwest;newEdgeStyle={&quot;edgeStyle&quot;:&quot;elbowEdgeStyle&quot;,&quot;elbow&quot;:&quot;vertical&quot;,&quot;curved&quot;:0,&quot;rounded&quot;:0};" vertex="1" parent="vyO_-9OmGo_VunlXmOem-6">
          <mxGeometry x="55" y="1260" width="10" height="40" as="geometry" />
        </mxCell>
        <mxCell id="vyO_-9OmGo_VunlXmOem-76" value="postProcessApplicationContext" style="html=1;align=left;spacingLeft=2;endArrow=block;rounded=0;edgeStyle=orthogonalEdgeStyle;curved=0;rounded=0;" edge="1" target="vyO_-9OmGo_VunlXmOem-75" parent="vyO_-9OmGo_VunlXmOem-6" source="vyO_-9OmGo_VunlXmOem-73">
          <mxGeometry relative="1" as="geometry">
            <mxPoint x="60" y="1240" as="sourcePoint" />
            <Array as="points">
              <mxPoint x="90" y="1240" />
              <mxPoint x="90" y="1280" />
            </Array>
          </mxGeometry>
        </mxCell>
        <mxCell id="vyO_-9OmGo_VunlXmOem-7" value="run" style="html=1;verticalAlign=bottom;endArrow=block;edgeStyle=elbowEdgeStyle;elbow=vertical;curved=0;rounded=0;" edge="1" parent="1">
          <mxGeometry width="80" relative="1" as="geometry">
            <mxPoint x="-600" y="1490" as="sourcePoint" />
            <mxPoint x="-440" y="1490" as="targetPoint" />
          </mxGeometry>
        </mxCell>
        <mxCell id="vyO_-9OmGo_VunlXmOem-16" value="SpringApplicationRunListener" style="rounded=0;whiteSpace=wrap;html=1;" vertex="1" parent="1">
          <mxGeometry x="-150" y="1565" width="190" height="20" as="geometry" />
        </mxCell>
        <mxCell id="vyO_-9OmGo_VunlXmOem-17" value="" style="edgeStyle=none;orthogonalLoop=1;jettySize=auto;html=1;shape=flexArrow;rounded=1;startSize=8;endSize=8;endWidth=15;" edge="1" parent="1">
          <mxGeometry width="100" relative="1" as="geometry">
            <mxPoint x="-200" y="1575.08" as="sourcePoint" />
            <mxPoint x="-160" y="1574.6599999999999" as="targetPoint" />
            <Array as="points" />
          </mxGeometry>
        </mxCell>
        <mxCell id="vyO_-9OmGo_VunlXmOem-18" value=":SpringAplicationRunLiseners" style="shape=umlLifeline;perimeter=lifelinePerimeter;whiteSpace=wrap;html=1;container=1;dropTarget=0;collapsible=0;recursiveResize=0;outlineConnect=0;portConstraint=eastwest;newEdgeStyle={&quot;edgeStyle&quot;:&quot;elbowEdgeStyle&quot;,&quot;elbow&quot;:&quot;vertical&quot;,&quot;curved&quot;:0,&quot;rounded&quot;:0};" vertex="1" parent="1">
          <mxGeometry x="-130" y="1390" width="160" height="950" as="geometry" />
        </mxCell>
        <mxCell id="vyO_-9OmGo_VunlXmOem-27" value="" style="html=1;points=[];perimeter=orthogonalPerimeter;outlineConnect=0;targetShapes=umlLifeline;portConstraint=eastwest;newEdgeStyle={&quot;edgeStyle&quot;:&quot;elbowEdgeStyle&quot;,&quot;elbow&quot;:&quot;vertical&quot;,&quot;curved&quot;:0,&quot;rounded&quot;:0};" vertex="1" parent="vyO_-9OmGo_VunlXmOem-18">
          <mxGeometry x="75" y="280" width="10" height="30" as="geometry" />
        </mxCell>
        <mxCell id="vyO_-9OmGo_VunlXmOem-55" value="" style="html=1;points=[];perimeter=orthogonalPerimeter;outlineConnect=0;targetShapes=umlLifeline;portConstraint=eastwest;newEdgeStyle={&quot;edgeStyle&quot;:&quot;elbowEdgeStyle&quot;,&quot;elbow&quot;:&quot;vertical&quot;,&quot;curved&quot;:0,&quot;rounded&quot;:0};" vertex="1" parent="vyO_-9OmGo_VunlXmOem-18">
          <mxGeometry x="75" y="710" width="10" height="20" as="geometry" />
        </mxCell>
        <mxCell id="vyO_-9OmGo_VunlXmOem-66" value="attach" style="html=1;verticalAlign=bottom;startArrow=oval;endArrow=block;startSize=8;edgeStyle=elbowEdgeStyle;elbow=vertical;curved=0;rounded=0;" edge="1" parent="vyO_-9OmGo_VunlXmOem-18">
          <mxGeometry relative="1" as="geometry">
            <mxPoint x="-270" y="890.3257142857142" as="sourcePoint" />
            <mxPoint x="340" y="890" as="targetPoint" />
          </mxGeometry>
        </mxCell>
        <mxCell id="vyO_-9OmGo_VunlXmOem-28" value="starting" style="html=1;verticalAlign=bottom;endArrow=block;edgeStyle=elbowEdgeStyle;elbow=vertical;curved=0;rounded=0;" edge="1" parent="1">
          <mxGeometry relative="1" as="geometry">
            <mxPoint x="-410.07142857142867" y="1670" as="sourcePoint" />
            <mxPoint x="-55" y="1670" as="targetPoint" />
          </mxGeometry>
        </mxCell>
        <mxCell id="vyO_-9OmGo_VunlXmOem-49" value=":ConfigrationPeropertySources" style="shape=umlLifeline;perimeter=lifelinePerimeter;whiteSpace=wrap;html=1;container=1;dropTarget=0;collapsible=0;recursiveResize=0;outlineConnect=0;portConstraint=eastwest;newEdgeStyle={&quot;edgeStyle&quot;:&quot;elbowEdgeStyle&quot;,&quot;elbow&quot;:&quot;vertical&quot;,&quot;curved&quot;:0,&quot;rounded&quot;:0};" vertex="1" parent="1">
          <mxGeometry x="120" y="1390" width="190" height="960" as="geometry" />
        </mxCell>
        <mxCell id="vyO_-9OmGo_VunlXmOem-53" value="" style="html=1;points=[];perimeter=orthogonalPerimeter;outlineConnect=0;targetShapes=umlLifeline;portConstraint=eastwest;newEdgeStyle={&quot;edgeStyle&quot;:&quot;elbowEdgeStyle&quot;,&quot;elbow&quot;:&quot;vertical&quot;,&quot;curved&quot;:0,&quot;rounded&quot;:0};" vertex="1" parent="vyO_-9OmGo_VunlXmOem-49">
          <mxGeometry x="90" y="670" width="10" height="20" as="geometry" />
        </mxCell>
        <mxCell id="vyO_-9OmGo_VunlXmOem-65" value="" style="html=1;points=[];perimeter=orthogonalPerimeter;outlineConnect=0;targetShapes=umlLifeline;portConstraint=eastwest;newEdgeStyle={&quot;edgeStyle&quot;:&quot;elbowEdgeStyle&quot;,&quot;elbow&quot;:&quot;vertical&quot;,&quot;curved&quot;:0,&quot;rounded&quot;:0};" vertex="1" parent="vyO_-9OmGo_VunlXmOem-49">
          <mxGeometry x="90" y="890.3299999999999" width="10" height="20" as="geometry" />
        </mxCell>
        <mxCell id="vyO_-9OmGo_VunlXmOem-54" value="attach" style="html=1;verticalAlign=bottom;startArrow=oval;endArrow=block;startSize=8;edgeStyle=elbowEdgeStyle;elbow=vertical;curved=0;rounded=0;" edge="1" parent="1">
          <mxGeometry relative="1" as="geometry">
            <mxPoint x="-400" y="2060" as="sourcePoint" />
            <mxPoint x="212.5" y="2059.9957142857143" as="targetPoint" />
          </mxGeometry>
        </mxCell>
        <mxCell id="vyO_-9OmGo_VunlXmOem-56" value="enviromentPrepared" style="html=1;verticalAlign=bottom;startArrow=oval;endArrow=block;startSize=8;edgeStyle=elbowEdgeStyle;elbow=vertical;curved=0;rounded=0;" edge="1" parent="1">
          <mxGeometry relative="1" as="geometry">
            <mxPoint x="-400" y="2099.9957142857143" as="sourcePoint" />
            <mxPoint x="-50" y="2099.9957142857143" as="targetPoint" />
          </mxGeometry>
        </mxCell>
        <mxCell id="vyO_-9OmGo_VunlXmOem-57" value=":DefaultPropertiesPeropertySources" style="shape=umlLifeline;perimeter=lifelinePerimeter;whiteSpace=wrap;html=1;container=1;dropTarget=0;collapsible=0;recursiveResize=0;outlineConnect=0;portConstraint=eastwest;newEdgeStyle={&quot;edgeStyle&quot;:&quot;elbowEdgeStyle&quot;,&quot;elbow&quot;:&quot;vertical&quot;,&quot;curved&quot;:0,&quot;rounded&quot;:0};" vertex="1" parent="1">
          <mxGeometry x="370" y="1390" width="200" height="970" as="geometry" />
        </mxCell>
        <mxCell id="vyO_-9OmGo_VunlXmOem-59" value="" style="html=1;points=[];perimeter=orthogonalPerimeter;outlineConnect=0;targetShapes=umlLifeline;portConstraint=eastwest;newEdgeStyle={&quot;edgeStyle&quot;:&quot;elbowEdgeStyle&quot;,&quot;elbow&quot;:&quot;vertical&quot;,&quot;curved&quot;:0,&quot;rounded&quot;:0};" vertex="1" parent="vyO_-9OmGo_VunlXmOem-57">
          <mxGeometry x="95" y="740" width="10" height="20" as="geometry" />
        </mxCell>
        <mxCell id="vyO_-9OmGo_VunlXmOem-60" value="moveTiEnd" style="html=1;verticalAlign=bottom;startArrow=oval;endArrow=block;startSize=8;edgeStyle=elbowEdgeStyle;elbow=vertical;curved=0;rounded=0;" edge="1" parent="vyO_-9OmGo_VunlXmOem-57">
          <mxGeometry relative="1" as="geometry">
            <mxPoint x="-770" y="740" as="sourcePoint" />
            <mxPoint x="100" y="739.9957142857143" as="targetPoint" />
          </mxGeometry>
        </mxCell>
      </root>
    </mxGraphModel>
  </diagram>
</mxfile>
